<svg viewBox="0 0 100 100" xmlns="http://www.w3.org/2000/svg" fill-rule="evenodd" clip-rule="evenodd" stroke-linejoin="round" stroke-miterlimit="1.414"><g fill="#BD2628"><g fill-rule="nonzero"><path d="M78.46 12.222c.178.036.226.036.394.108.196.082.344.204.5.346l18.253 18.986c.13.157.173.19.264.373.21.412.214.91.018 1.327-.085.185-.128.222-.25.38L51.45 84.598c-.148.14-.18.185-.358.29-.47.276-1.07.276-1.54 0-.178-.102-.21-.148-.357-.29L3.007 33.86c-.125-.16-.168-.193-.253-.378-.196-.418-.19-.913.014-1.328.09-.182.134-.216.262-.372L21.24 12.68c.048-.046.096-.097.15-.14.16-.128.347-.222.546-.28.176-.047.225-.04.407-.053 18.704 0 37.454-1.24 56.116.015zM6.216 32.86L50.32 81.307l44.103-48.56-16.817-17.493H22.994L6.217 32.86z"/><path d="M95.415 34.23l-90.938.213-.006-3.05 90.936-.21.01 3.047z"/><path d="M50.475 12.3c.236.04.45.103.648.234.13.086.156.117.267.22l17.124 17.723 8.37-17.326.088-.16c.15-.203.31-.376.532-.5.16-.092.335-.155.517-.183.754-.117 1.496.36 1.7 1.092.07.237.078.488.027.73-.034.158-.057.195-.12.346l-9.32 19.293c-.09.164-.184.312-.32.443-.404.383-1.004.517-1.533.34-.24-.082-.43-.218-.614-.386l-17.556-18.17-17.914 18.18-.136.124c-.154.11-.305.2-.484.26-.534.17-1.13.028-1.532-.365-.136-.133-.227-.28-.316-.446l-8.944-19.297c-.06-.15-.082-.187-.114-.35-.056-.3-.022-.616.1-.9.074-.168.18-.325.307-.456.533-.543 1.414-.605 2.02-.145.2.157.335.35.454.572l8.018 17.297L49.21 12.746l.127-.117c.145-.105.285-.193.455-.253.145-.05.185-.05.34-.077.172-.008.172-.008.343.003z"/><path d="M69.11 31.333c.234.04.444.102.646.227.444.28.714.785.708 1.308-.003.176-.042.338-.094.506L51.728 84.097c-.113.264-.258.494-.49.673-.59.467-1.46.42-2-.105-.168-.162-.273-.347-.367-.557L29.86 33.382c-.05-.167-.094-.327-.097-.506-.01-.588.33-1.14.856-1.398.212-.106.43-.14.667-.154 12.61 0 25.238-.702 37.824.01zm-35.625 3.04l16.8 44.82 16.472-44.82H33.485z"/></g><g transform="translate(0 10) scale(2.84305)"><ellipse cx="8.468" cy="1.98" rx="1.954" ry="1.98"/><ellipse cx="33.219" cy="8.482" rx="1.954" ry="1.98"/><ellipse cx="26.706" cy="1.98" rx="1.954" ry="1.98"/><ellipse cx="1.954" cy="8.482" rx="1.954" ry="1.98"/><ellipse cx="17.587" cy="25.387" rx="1.954" ry="1.98"/></g></g></svg>