<?xml version="1.0" standalone="no"?>
<!DOCTYPE svg PUBLIC "-//W3C//DTD SVG 1.1//EN" "http://www.w3.org/Graphics/SVG/1.1/DTD/svg11.dtd">
<svg width="100%" height="100%" viewBox="0 0 100 100" version="1.1" xmlns="http://www.w3.org/2000/svg" xmlns:xlink="http://www.w3.org/1999/xlink" xml:space="preserve" style="fill-rule:evenodd;clip-rule:evenodd;stroke-linejoin:round;stroke-miterlimit:1.41421;">
    <g transform="matrix(2.84305,0,0,2.84305,0,10)">
        <g id="Group" transform="matrix(1,0,0,1,1.30272,1.30039)">
            <path d="M26.294,-0.519C26.357,-0.506 26.374,-0.506 26.433,-0.481C26.502,-0.452 26.554,-0.409 26.609,-0.359L33.029,6.319C33.075,6.374 33.09,6.386 33.122,6.45C33.195,6.595 33.197,6.77 33.128,6.917C33.098,6.982 33.083,6.995 33.04,7.051L16.794,24.938C16.742,24.987 16.731,25.003 16.668,25.04C16.503,25.137 16.292,25.137 16.126,25.04C16.064,25.004 16.053,24.988 16.001,24.938L-0.245,7.092C-0.289,7.036 -0.304,7.024 -0.334,6.959C-0.403,6.812 -0.401,6.638 -0.329,6.492C-0.297,6.428 -0.282,6.416 -0.237,6.361L6.168,-0.358C6.185,-0.374 6.202,-0.392 6.221,-0.407C6.277,-0.452 6.343,-0.485 6.413,-0.505C6.475,-0.522 6.492,-0.52 6.556,-0.524C13.135,-0.524 19.73,-0.96 26.294,-0.519ZM0.884,6.74L16.397,23.781L31.909,6.701L25.994,0.548L6.785,0.548C4.818,2.612 2.851,4.676 0.884,6.74Z" style="fill:rgb(189,38,40);fill-rule:nonzero;"/>
            <path d="M32.258,7.222L0.272,7.297L0.27,6.224L32.255,6.15C32.256,6.507 32.257,6.865 32.258,7.222Z" style="fill:rgb(189,38,40);fill-rule:nonzero;"/>
            <path d="M16.451,-0.491C16.534,-0.477 16.609,-0.455 16.679,-0.409C16.725,-0.379 16.734,-0.368 16.773,-0.332L22.796,5.902L25.74,-0.192L25.771,-0.249C25.824,-0.32 25.88,-0.381 25.958,-0.425C26.014,-0.457 26.076,-0.479 26.14,-0.489C26.405,-0.53 26.666,-0.362 26.738,-0.105C26.762,-0.021 26.765,0.067 26.747,0.152C26.735,0.208 26.727,0.221 26.705,0.274L23.427,7.06C23.395,7.118 23.362,7.17 23.314,7.216C23.172,7.351 22.961,7.398 22.775,7.336C22.691,7.307 22.624,7.259 22.559,7.2L16.384,0.809L10.083,7.203L10.035,7.247C9.981,7.285 9.928,7.317 9.865,7.338C9.677,7.398 9.467,7.348 9.326,7.21C9.278,7.163 9.246,7.111 9.215,7.053L6.069,0.266C6.048,0.213 6.04,0.2 6.029,0.143C6.009,0.037 6.021,-0.074 6.064,-0.174C6.09,-0.233 6.127,-0.288 6.172,-0.334C6.359,-0.525 6.669,-0.547 6.882,-0.385C6.953,-0.33 7,-0.262 7.042,-0.184L9.862,5.9L16.006,-0.335L16.051,-0.376C16.102,-0.413 16.151,-0.444 16.211,-0.465C16.262,-0.483 16.276,-0.483 16.33,-0.492C16.391,-0.495 16.391,-0.495 16.451,-0.491Z" style="fill:rgb(189,38,40);fill-rule:nonzero;"/>
            <path d="M23.006,6.203C23.088,6.217 23.162,6.239 23.233,6.283C23.389,6.382 23.484,6.559 23.482,6.743C23.481,6.805 23.467,6.862 23.449,6.921L16.892,24.762C16.852,24.855 16.801,24.936 16.72,24.999C16.512,25.163 16.206,25.147 16.016,24.962C15.957,24.905 15.92,24.84 15.887,24.766L9.2,6.924C9.182,6.865 9.167,6.809 9.166,6.746C9.162,6.539 9.282,6.345 9.467,6.254C9.542,6.217 9.619,6.205 9.702,6.2C14.137,6.2 18.579,5.953 23.006,6.203ZM10.475,7.272L16.384,23.037L22.178,7.272C18.277,7.272 14.376,7.272 10.475,7.272Z" style="fill:rgb(189,38,40);fill-rule:nonzero;"/>
        </g>
        <g id="Group1">
            <ellipse id="Oval-1" cx="8.468" cy="1.98" rx="1.954" ry="1.98" style="fill:rgb(189,38,40);"/>
            <ellipse id="Oval-1-Copy-2" cx="33.219" cy="8.482" rx="1.954" ry="1.98" style="fill:rgb(189,38,40);"/>
            <ellipse id="Oval-1-Copy-4" cx="26.706" cy="1.98" rx="1.954" ry="1.98" style="fill:rgb(189,38,40);"/>
            <ellipse id="Oval-1-Copy-6" cx="1.954" cy="8.482" rx="1.954" ry="1.98" style="fill:rgb(189,38,40);"/>
            <ellipse id="Oval-1-Copy-7" cx="17.587" cy="25.387" rx="1.954" ry="1.98" style="fill:rgb(189,38,40);"/>
        </g>
    </g>
</svg>
