<svg viewBox="0 0 241 28" xmlns="http://www.w3.org/2000/svg" fill-rule="evenodd" clip-rule="evenodd" stroke-linejoin="round" stroke-miterlimit="1.414"><g fill="#BD2628"><g fill-rule="nonzero"><path d="M27.597.78c.063.014.08.014.14.04.068.028.12.07.175.12l6.42 6.68c.046.054.06.066.093.13.073.145.075.32.006.467-.03.065-.044.078-.087.134L18.097 26.24c-.052.05-.063.065-.126.102-.164.097-.375.097-.54 0-.063-.036-.074-.052-.126-.102L1.058 8.392c-.044-.056-.06-.068-.09-.133C.9 8.11.903 7.937.975 7.79c.032-.064.047-.076.092-.13L7.47.94c.018-.016.035-.034.054-.05.056-.044.122-.077.192-.097.062-.017.08-.015.143-.02 6.578 0 13.173-.435 19.737.006zM2.187 8.04L17.7 25.08 33.212 8 27.297 1.85H8.087l-5.9 6.192z"/><path d="M33.56 8.522l-31.985.075-.002-1.073 31.985-.074.003 1.072z"/><path d="M17.754.81c.083.013.158.035.228.08.046.03.055.042.094.078L24.1 7.202l2.943-6.094.03-.057c.054-.07.11-.13.188-.175.057-.032.12-.054.183-.064.265-.04.526.128.598.385.025.084.028.172.01.257-.012.056-.02.07-.042.122L24.73 8.36c-.032.058-.065.11-.113.156-.142.135-.353.182-.54.12-.083-.03-.15-.077-.215-.136l-6.175-6.39-6.3 6.393-.05.044c-.053.038-.106.07-.17.09-.187.06-.397.01-.538-.127-.05-.047-.08-.1-.112-.157L7.372 1.566c-.02-.053-.03-.066-.04-.123-.02-.106-.008-.217.035-.317.026-.06.063-.114.108-.16.187-.19.497-.213.71-.05.07.054.118.122.16.2l2.82 6.084L17.31.965l.044-.04c.05-.038.1-.07.16-.09.05-.018.065-.018.12-.027.06-.003.06-.003.12 0z"/><path d="M24.31 7.503c.08.014.155.036.226.08.156.1.25.276.25.46-.002.062-.016.12-.034.178l-6.557 17.842c-.04.093-.09.174-.172.237-.208.163-.514.147-.704-.038-.06-.057-.097-.122-.13-.196L10.503 8.224c-.018-.06-.033-.115-.034-.178-.005-.207.115-.4.3-.492.075-.037.152-.05.235-.054 4.435 0 8.877-.247 13.304.003zm-12.532 1.07l5.91 15.764L23.48 8.572H11.78z"/></g><ellipse cx="8.468" cy="1.98" rx="1.954" ry="1.98"/><ellipse cx="33.219" cy="8.482" rx="1.954" ry="1.98"/><ellipse cx="26.706" cy="1.98" rx="1.954" ry="1.98"/><ellipse cx="1.954" cy="8.482" rx="1.954" ry="1.98"/><ellipse cx="17.587" cy="25.387" rx="1.954" ry="1.98"/><path d="M69.98 9.138c0 3.15-1.377 5.134-4.13 5.953l5.005 6.937H66.75l-4.567-6.417h-4.24v6.417h-3.23V2.94h7.114c2.918 0 5.007.49 6.265 1.474 1.258.983 1.888 2.557 1.888 4.724zm-4.295 2.703c.656-.563.984-1.47.984-2.716 0-1.247-.338-2.103-1.013-2.567-.675-.464-1.878-.696-3.61-.696H57.94v6.828h4.022c1.824 0 3.064-.282 3.72-.847zm18.192 3.524V7.5h3.064v14.527h-3.063v-2.65c-.492.894-1.172 1.594-2.038 2.104-.867.51-1.802.766-2.805.766-1.642 0-2.968-.5-3.98-1.502-1.013-1-1.52-2.45-1.52-4.342V7.5H76.6v7.973c0 2.677 1.113 4.015 3.338 4.015 1.057 0 1.978-.35 2.763-1.052.785-.7 1.177-1.725 1.177-3.072zm20.053-6.062c1.386 1.347 2.08 3.14 2.08 5.38 0 2.24-.69 4.06-2.066 5.46-1.377 1.403-2.982 2.104-4.815 2.104-1.834 0-3.48-.8-4.94-2.403v2.184h-3.063V1.765h3.064v8.274c1.204-1.84 2.782-2.76 4.734-2.76 1.95 0 3.62.675 5.006 2.022zm-8.536 8.89c.84.882 1.86 1.323 3.064 1.323s2.253-.437 3.147-1.31c.893-.875 1.34-2.008 1.34-3.4 0-1.393-.438-2.55-1.313-3.47-.876-.918-1.924-1.378-3.146-1.378s-2.253.46-3.092 1.38c-.84.92-1.258 2.07-1.258 3.454 0 1.384.42 2.518 1.258 3.4zm15.703 9.625c-1.33 0-2.535-.483-3.61-1.448l1.395-2.486c.638.6 1.3.902 1.983.902.684 0 1.24-.246 1.67-.738.427-.49.642-1.028.642-1.61 0-.256-1.96-5.235-5.882-14.94h3.283l4.35 10.706 4.35-10.705h3.282l-7.058 17.258c-.42.947-1.02 1.693-1.806 2.24-.784.546-1.65.82-2.6.82zm29.683-5.79h-8.37V2.94h7.44c1.295 0 2.412.154 3.35.463.94.31 1.638.728 2.094 1.256.875.982 1.313 2.093 1.313 3.33 0 1.494-.474 2.604-1.423 3.333-.346.254-.583.414-.71.477-.128.064-.356.17-.685.314 1.185.255 2.13.788 2.83 1.598.703.81 1.054 1.816 1.054 3.018 0 1.33-.456 2.503-1.368 3.522-1.076 1.184-2.918 1.775-5.526 1.775zm-5.143-11.17h4.103c2.335 0 3.502-.79 3.502-2.375 0-.91-.283-1.565-.848-1.966-.565-.4-1.44-.6-2.626-.6h-4.13v4.942zm0 8.194h5.06c1.186 0 2.094-.186 2.723-.56.63-.372.944-1.078.944-2.115 0-1.694-1.36-2.54-4.076-2.54h-4.65v5.216zm28.944-2.95h-11.407c.073 1.057.556 1.91 1.45 2.555.893.646 1.915.97 3.064.97 1.824 0 3.21-.574 4.158-1.72l1.75 1.91c-1.568 1.62-3.61 2.43-6.127 2.43-2.043 0-3.78-.677-5.212-2.034-1.43-1.355-2.147-3.175-2.147-5.46s.728-4.1 2.187-5.448c1.46-1.347 3.178-2.02 5.157-2.02 1.98 0 3.66.595 5.048 1.788 1.386 1.192 2.08 2.835 2.08 4.93v2.1zM153.174 13.7h8.344c0-1.22-.383-2.157-1.15-2.812-.765-.656-1.71-.983-2.83-.983-1.122 0-2.13.34-3.024 1.024-.893.682-1.34 1.606-1.34 2.77zm17.59 8.33H167.7V1.764h3.063v20.262zm17.646-14.53V20.17c0 2.567-.7 4.493-2.094 5.776-1.395 1.284-3.187 1.925-5.376 1.925-2.188 0-4.167-.68-5.936-2.047l1.45-2.32c1.422 1.073 2.86 1.61 4.308 1.61 1.45 0 2.6-.373 3.447-1.12.848-.746 1.272-1.938 1.272-3.577V18.56c-.456.855-1.108 1.538-1.956 2.047-.85.51-1.8.765-2.86.765-1.933 0-3.52-.674-4.76-2.02-1.24-1.348-1.86-3.023-1.86-5.026 0-2.002.62-3.677 1.86-5.024 1.24-1.347 2.823-2.02 4.747-2.02s3.488.79 4.692 2.375V7.5h3.064zm-10.246 9.79c.738.866 1.732 1.3 2.98 1.3 1.25 0 2.263-.42 3.038-1.258.775-.837 1.163-1.88 1.163-3.126 0-1.248-.392-2.303-1.177-3.168-.784-.865-1.796-1.297-3.036-1.297s-2.23.445-2.968 1.337c-.74.892-1.108 1.934-1.108 3.127 0 1.192.37 2.22 1.108 3.085zm17.494 4.74h-3.064V7.497h3.064v14.53zm-3.447-18.79c0-.527.193-.982.576-1.364.383-.382.84-.574 1.368-.574.53 0 .985.192 1.368.574.383.382.574.837.574 1.365 0 .527-.19.982-.574 1.365-.383.382-.84.573-1.368.573-.53 0-.985-.19-1.368-.573-.383-.383-.575-.838-.575-1.366zm17.81 12.126V7.5h3.065v14.527h-3.064v-2.65c-.49.894-1.17 1.594-2.037 2.104-.866.51-1.8.766-2.804.766-1.643 0-2.97-.5-3.982-1.502-1.012-1-1.518-2.45-1.518-4.342V7.5h3.064v7.973c0 2.677 1.112 4.015 3.338 4.015 1.057 0 1.978-.35 2.763-1.052.784-.7 1.176-1.725 1.176-3.072zm10.315-1.2v7.863h-3.064V7.5h3.065v2.648c.437-.892 1.098-1.593 1.983-2.102.885-.51 1.837-.765 2.86-.765 2.297 0 3.856.948 4.677 2.84 1.44-1.892 3.237-2.84 5.39-2.84 1.64 0 2.967.502 3.98 1.503 1.012 1 1.518 2.45 1.518 4.342v8.902h-3.064v-7.974c0-2.676-1.113-4.014-3.34-4.014-1.038 0-1.945.33-2.72.996-.776.664-1.18 1.634-1.218 2.908v8.083h-3.064v-7.974c0-1.383-.246-2.398-.74-3.045-.49-.646-1.266-.97-2.324-.97-1.058 0-1.98.352-2.763 1.052-.783.7-1.175 1.725-1.175 3.073z"/></g></svg>